<svg xmlns="http://www.w3.org/2000/svg" xmlns:xlink="http://www.w3.org/1999/xlink" style="display: none;">
  <symbol id="heart" viewBox="0 0 1024 1024">
    <title>Heart</title>
    <path fill="currentColor" d="M752 64c-103.912 0-194.2 58.276-240 143.92-45.802-85.644-136.090-143.92-240-143.92-150.222 0-272 121.78-272 272 0 368 512 624 512 624s512-256 512-624c0-150.22-121.778-272-272-272z"></path>
  </symbol>

  <symbol id="check" viewBox="0 0 768 1024">
    <title>Check</title>
    <path fill="currentColor" d="M640 192l-384 384-128-128-128 128 256 256 512-512-128-128z"></path>
  </symbol>

  <symbol id="x" viewBox="0 0 640 1024">
    <title>x</title>
    <path fill="currentColor" d="M640 320l-128-128-192 192-192-192-128 128 192 192-192 192 128 128 192-192 192 192 128-128-192-192 192-192z"></path>
  </symbol>

  <symbol id="question" viewBox="0 0 1024 1024">
    <title>Question</title>
    <path fill="currentColor" d="M512 0c-282.77 0-512 229.23-512 512s229.226 512 512 512c282.77 0 512-229.23 512-512s-229.23-512-512-512zM576 832h-128v-128h128v128zM768 512l-192 128h-128v-64l192-128v-64h-320v-128h384c35.346 0 64 28.654 64 64v192z"></path>
  </symbol>
</svg>
