<svg xmlns="http://www.w3.org/2000/svg" xmlns:xlink="http://www.w3.org/1999/xlink" style="display: none;">
  <symbol id="heart" viewBox="0 0 1024 1024">
    <title>Heart</title>
    <path fill="currentColor" d="M752 64c-103.912 0-194.2 58.276-240 143.92-45.802-85.644-136.090-143.92-240-143.92-150.222 0-272 121.78-272 272 0 368 512 624 512 624s512-256 512-624c0-150.22-121.778-272-272-272z"></path>
  </symbol>

  <symbol id="check" viewBox="0 0 768 1024">
    <title>Check</title>
    <path fill="currentColor" d="M640 192l-384 384-128-128-128 128 256 256 512-512-128-128z"></path>
  </symbol>

  <symbol id="x" viewBox="0 0 640 1024">
    <title>x</title>
    <path fill="currentColor" d="M640 320l-128-128-192 192-192-192-128 128 192 192-192 192 128 128 192-192 192 192 128-128-192-192 192-192z"></path>
  </symbol>
</svg>
